<svg width="172" height="88" viewBox="0 0 172 88" fill="none" xmlns="http://www.w3.org/2000/svg">
<path d="M7.508 36.332C6.49667 36.332 5.732 36.1717 5.214 35.851C4.72067 35.555 4.38767 35.2097 4.215 34.815C4.067 34.4203 3.993 34.112 3.993 33.89C3.993 33.1747 4.31367 32.5827 4.955 32.114C5.621 31.6207 6.361 31.374 7.175 31.374C7.96433 31.374 8.93867 31.263 10.098 31.041C11.282 30.7943 12.5277 30.449 13.835 30.005C15.167 29.561 16.4373 29.006 17.646 28.34C18.8793 27.674 19.9523 26.9093 20.865 26.046C21.7777 25.1827 22.4067 24.233 22.752 23.197C22.2093 23.0983 21.6667 23.0243 21.124 22.975C20.5813 22.901 20.0387 22.864 19.496 22.864C17.6707 22.864 15.7837 23.0613 13.835 23.456C11.8863 23.8507 9.95 24.233 8.026 24.603C7.55733 24.7017 7.138 24.6153 6.768 24.344C6.71867 24.862 6.66933 25.343 6.62 25.787C6.59533 26.2063 6.57067 26.6627 6.546 27.156C6.49667 28.3647 6.38567 29.302 6.213 29.968C6.065 30.6093 5.89233 31.0657 5.695 31.337C5.49767 31.6083 5.288 31.7687 5.066 31.818C4.844 31.8673 4.63433 31.892 4.437 31.892C4.363 31.892 4.31367 31.892 4.289 31.892C3.845 31.892 3.42567 31.781 3.031 31.559C2.63633 31.337 2.31567 30.8807 2.069 30.19C1.82233 29.4747 1.699 28.4017 1.699 26.971C1.699 22.4323 2.19233 18.5843 3.179 15.427C4.19033 12.245 5.63333 9.82767 7.508 8.175C9.40733 6.49767 11.6767 5.659 14.316 5.659C16.388 5.659 18.0037 6.22633 19.163 7.361C20.3223 8.471 20.902 10.0743 20.902 12.171C20.902 13.2317 20.6923 14.2923 20.273 15.353C19.8537 16.4137 19.2617 17.462 18.497 18.498C18.9657 18.3993 19.422 18.3253 19.866 18.276C20.31 18.202 20.7293 18.165 21.124 18.165C23.4427 18.165 25.157 18.5843 26.267 19.423C27.377 20.237 27.932 21.3347 27.932 22.716C27.932 24.0973 27.5373 25.3923 26.748 26.601C25.9833 27.8097 24.9597 28.9197 23.677 29.931C22.419 30.9177 21.0253 31.818 19.496 32.632C17.9667 33.4213 16.4373 34.0997 14.908 34.667C13.3787 35.2097 11.9603 35.6167 10.653 35.888C9.34567 36.184 8.29733 36.332 7.508 36.332ZM7.212 20.533C7.36 20.459 7.52033 20.4097 7.693 20.385C9.913 20.015 11.615 19.5093 12.799 18.868C13.983 18.2267 14.797 17.425 15.241 16.463C15.685 15.501 15.907 14.354 15.907 13.022C15.907 12.6767 15.8577 12.3067 15.759 11.912C15.6603 11.5173 15.463 11.1843 15.167 10.913C14.8957 10.617 14.4763 10.469 13.909 10.469C12.0343 10.469 10.5667 11.32 9.506 13.022C8.47 14.6993 7.70533 17.203 7.212 20.533ZM37.4803 36.221C35.729 36.221 34.323 35.6043 33.2623 34.371C32.2016 33.113 31.6713 31.4357 31.6713 29.339C31.6713 28.673 31.7576 27.9947 31.9303 27.304C32.1276 26.6133 32.362 25.972 32.6333 25.38C32.4853 25.158 32.362 24.8743 32.2633 24.529C32.1893 24.159 32.1523 23.7273 32.1523 23.234C32.1523 21.6307 32.436 20.163 33.0033 18.831C33.5706 17.4743 34.3353 16.3027 35.2973 15.316C36.2593 14.3293 37.32 13.5647 38.4793 13.022C39.6386 12.4793 40.8103 12.208 41.9943 12.208C44.017 12.208 45.6696 12.8863 46.9523 14.243C48.2596 15.5997 48.9133 17.7087 48.9133 20.57C48.9133 22.0007 48.6913 23.456 48.2473 24.936C47.8033 26.416 47.199 27.8343 46.4343 29.191C45.6943 30.523 44.831 31.7193 43.8443 32.78C42.8823 33.8407 41.8463 34.6793 40.7363 35.296C39.651 35.9127 38.5656 36.221 37.4803 36.221ZM36.8883 23.715C37.0116 23.9863 37.0733 24.307 37.0733 24.677C37.0733 25.047 36.9993 25.4293 36.8513 25.824C36.7033 26.2187 36.5553 26.749 36.4073 27.415C36.2593 28.0563 36.1853 28.9813 36.1853 30.19C36.1853 30.5107 36.2223 30.782 36.2963 31.004C36.395 31.2013 36.6046 31.3 36.9253 31.3C37.764 31.3 38.5533 31.0287 39.2933 30.486C40.058 29.9433 40.7363 29.228 41.3283 28.34C41.945 27.452 42.463 26.4653 42.8823 25.38C43.3263 24.27 43.6593 23.1477 43.8813 22.013C44.128 20.8537 44.2513 19.7807 44.2513 18.794C44.2513 18.1527 44.128 17.7087 43.8813 17.462C43.6346 17.2153 43.203 17.092 42.5863 17.092C41.7476 17.092 40.8843 17.3633 39.9963 17.906C39.133 18.424 38.4053 19.1393 37.8133 20.052C37.2213 20.94 36.9253 21.9513 36.9253 23.086C36.9253 23.308 36.913 23.5177 36.8883 23.715ZM67.5576 35.925C67.3109 35.925 66.8422 35.9127 66.1516 35.888C65.4609 35.8633 64.6346 35.8263 63.6726 35.777C62.7106 35.7277 61.7116 35.6783 60.6756 35.629C59.6642 35.5797 58.7022 35.5427 57.7896 35.518C56.8769 35.4933 56.1369 35.481 55.5696 35.481C54.6816 35.481 53.9416 35.2097 53.3496 34.667C52.7822 34.0997 52.4986 33.3103 52.4986 32.299C52.4986 31.707 52.8192 30.93 53.4606 29.968C54.1266 28.9813 54.9899 27.896 56.0506 26.712C57.1112 25.5033 58.2582 24.2823 59.4916 23.049C60.7496 21.8157 61.9952 20.6563 63.2286 19.571C64.4866 18.461 65.5966 17.5113 66.5586 16.722C64.9306 16.944 63.3642 17.203 61.8596 17.499C60.3549 17.795 59.0476 18.054 57.9376 18.276C56.8522 18.498 56.1122 18.609 55.7176 18.609C55.0022 18.609 54.4349 18.4117 54.0156 18.017C53.5962 17.5977 53.3866 17.0427 53.3866 16.352C53.3866 16.056 53.6949 15.7477 54.3116 15.427C54.9282 15.0817 55.7669 14.761 56.8276 14.465C57.8882 14.169 59.0846 13.8977 60.4166 13.651C61.7732 13.4043 63.1792 13.2193 64.6346 13.096C66.1146 12.948 67.5699 12.874 69.0006 12.874C69.6912 12.874 70.2709 13.0467 70.7396 13.392C71.2329 13.7127 71.6029 14.132 71.8496 14.65C72.1209 15.1433 72.2566 15.649 72.2566 16.167C72.2566 16.3643 71.9852 16.7713 71.4426 17.388C70.8999 18.0047 70.1846 18.7693 69.2966 19.682C68.4086 20.57 67.4219 21.5443 66.3366 22.605C65.2512 23.641 64.1659 24.7017 63.0806 25.787C62.0199 26.8477 61.0332 27.859 60.1206 28.821C59.2079 29.783 58.4679 30.6217 57.9006 31.337C58.8626 31.3123 59.9479 31.2753 61.1566 31.226C62.3652 31.1767 63.5369 31.1273 64.6716 31.078C65.8062 31.0287 66.7929 30.9917 67.6316 30.967C68.4702 30.9423 69.0006 30.93 69.2226 30.93C70.0119 30.93 70.5792 31.115 70.9246 31.485C71.2699 31.855 71.4426 32.2867 71.4426 32.78C71.4426 33.52 71.0849 34.2353 70.3696 34.926C69.6789 35.592 68.7416 35.925 67.5576 35.925ZM95.5446 37.701C93.8673 37.701 92.3133 37.3433 90.8826 36.628C89.4519 35.9373 88.1446 35.0247 86.9606 33.89C85.7766 32.7307 84.7159 31.4727 83.7786 30.116C82.8659 28.7347 82.0889 27.378 81.4476 26.046C81.1516 27.4027 80.8803 28.562 80.6336 29.524C80.4116 30.486 80.2266 31.2877 80.0786 31.929C79.9553 32.4223 79.8196 32.9033 79.6716 33.372C79.5483 33.8407 79.3509 34.223 79.0796 34.519C78.8083 34.815 78.4259 34.963 77.9326 34.963C76.8719 34.963 76.1936 34.6053 75.8976 33.89C75.6016 33.15 75.4536 32.2127 75.4536 31.078C75.4536 30.0667 75.6139 28.7347 75.9346 27.082C76.2799 25.4293 76.7363 23.5793 77.3036 21.532C77.8709 19.4847 78.5246 17.3757 79.2646 15.205C80.0293 13.0097 80.8433 10.876 81.7066 8.804C82.5699 6.70733 83.4333 4.808 84.2966 3.106C84.8393 2.07 85.3203 1.41633 85.7396 1.145C86.1589 0.848999 86.6523 0.700998 87.2196 0.700998C87.7869 0.700998 88.2186 0.848999 88.5146 1.145C88.8106 1.441 88.9586 1.83567 88.9586 2.329C88.9586 2.64966 88.8846 2.97033 88.7366 3.291C88.5886 3.61166 88.4283 4.00633 88.2556 4.475C87.6883 5.733 87.0963 7.20067 86.4796 8.878C85.8629 10.5307 85.2709 12.245 84.7036 14.021C84.1363 15.7723 83.6306 17.4373 83.1866 19.016C84.3953 18.3007 85.7396 17.61 87.2196 16.944C88.6996 16.2533 90.1919 15.6367 91.6966 15.094C93.2259 14.5267 94.6566 14.0827 95.9886 13.762C97.3206 13.4413 98.4429 13.281 99.3556 13.281C100.071 13.281 100.614 13.4907 100.984 13.91C101.354 14.3293 101.539 14.7857 101.539 15.279C101.539 15.649 101.428 16.019 101.206 16.389C100.984 16.759 100.515 17.0797 99.7996 17.351C97.4316 18.1403 95.0759 18.942 92.7326 19.756C90.4139 20.57 87.8363 21.532 84.9996 22.642C85.5916 23.8013 86.2823 24.9977 87.0716 26.231C87.8609 27.4397 88.7119 28.5743 89.6246 29.635C90.5373 30.671 91.4746 31.522 92.4366 32.188C93.3986 32.8293 94.3483 33.15 95.2856 33.15C96.6669 33.15 97.9989 32.8787 99.2816 32.336C100.564 31.7687 101.748 31.0903 102.834 30.301C103.919 29.487 104.869 28.6977 105.683 27.933C106.521 27.1683 107.175 26.5763 107.644 26.157C107.915 25.8857 108.174 25.6883 108.421 25.565C108.692 25.4417 109.025 25.38 109.42 25.38C109.888 25.38 110.246 25.528 110.493 25.824C110.764 26.0953 110.887 26.453 110.863 26.897C110.838 27.3163 110.628 27.7357 110.234 28.155C109.913 28.5003 109.407 29.0553 108.717 29.82C108.051 30.56 107.237 31.3863 106.275 32.299C105.337 33.187 104.289 34.0503 103.13 34.889C101.995 35.703 100.786 36.369 99.5036 36.887C98.2209 37.4297 96.9013 37.701 95.5446 37.701ZM120.264 36.665C119.697 36.665 119.179 36.4307 118.71 35.962C118.266 35.518 118.044 34.7657 118.044 33.705C118.044 32.9157 118.106 31.818 118.229 30.412C118.377 28.9813 118.648 27.1437 119.043 24.899C118.18 26.675 117.279 28.2537 116.342 29.635C115.405 31.0163 114.48 32.1017 113.567 32.891C112.679 33.6557 111.828 34.038 111.014 34.038C109.707 34.038 108.671 33.6433 107.906 32.854C107.141 32.04 106.759 30.523 106.759 28.303C106.759 27.2423 106.845 26.046 107.018 24.714C107.215 23.382 107.462 22.05 107.758 20.718C108.054 19.386 108.35 18.202 108.646 17.166C108.967 16.1053 109.25 15.316 109.497 14.798C109.694 14.354 109.941 14.0087 110.237 13.762C110.558 13.5153 110.965 13.392 111.458 13.392C112.247 13.392 112.852 13.651 113.271 14.169C113.69 14.687 113.9 15.2173 113.9 15.76C113.9 16.1793 113.801 16.7837 113.604 17.573C113.431 18.3623 113.209 19.238 112.938 20.2C112.691 21.162 112.432 22.1487 112.161 23.16C111.89 24.1713 111.655 25.121 111.458 26.009C111.285 26.897 111.199 27.6493 111.199 28.266C111.199 29.0307 111.495 29.413 112.087 29.413C112.432 29.413 112.876 29.08 113.419 28.414C113.986 27.748 114.578 26.86 115.195 25.75C115.836 24.6153 116.478 23.382 117.119 22.05C117.785 20.6933 118.389 19.3243 118.932 17.943C119.499 16.537 119.98 15.242 120.375 14.058C120.622 13.318 120.955 12.8 121.374 12.504C121.793 12.208 122.274 12.06 122.817 12.06C123.656 12.06 124.297 12.2943 124.741 12.763C125.21 13.2317 125.444 13.8977 125.444 14.761C125.444 15.1557 125.382 15.8217 125.259 16.759C125.136 17.6963 124.975 18.794 124.778 20.052C124.605 21.31 124.396 22.642 124.149 24.048C123.902 25.454 123.656 26.8353 123.409 28.192C123.187 29.5487 122.965 30.7943 122.743 31.929C122.521 33.039 122.336 33.927 122.188 34.593C121.941 35.5797 121.645 36.1717 121.3 36.369C120.955 36.5663 120.609 36.665 120.264 36.665ZM130.21 36.628C129.593 36.628 129.063 36.406 128.619 35.962C128.2 35.518 127.99 34.8767 127.99 34.038C127.99 33.668 128.039 33.0637 128.138 32.225C128.261 31.3617 128.409 30.375 128.582 29.265C128.779 28.155 128.964 26.9957 129.137 25.787C129.334 24.5783 129.495 23.4313 129.618 22.346C129.766 21.2607 129.865 20.3357 129.914 19.571C129.963 18.6337 130.21 17.9677 130.654 17.573C131.098 17.1537 131.628 16.944 132.245 16.944C132.738 16.944 133.182 17.0673 133.577 17.314C133.996 17.536 134.255 18.017 134.354 18.757C134.477 19.4723 134.49 20.5083 134.391 21.865C135.476 19.8917 136.574 18.128 137.684 16.574C138.819 15.02 140.003 13.7867 141.236 12.874C143.283 11.32 145.133 10.543 146.786 10.543C147.723 10.543 148.34 10.7527 148.636 11.172C148.932 11.5913 149.08 12.023 149.08 12.467C149.08 12.763 149.006 13.0343 148.858 13.281C148.735 13.5277 148.463 13.7867 148.044 14.058C147.625 14.3293 146.983 14.687 146.12 15.131C144.961 15.723 143.814 16.5 142.679 17.462C141.569 18.424 140.459 19.6573 139.349 21.162C138.239 22.6667 137.117 24.5167 135.982 26.712C134.847 28.9073 133.676 31.522 132.467 34.556C132.245 35.3947 131.924 35.9497 131.505 36.221C131.11 36.4923 130.679 36.628 130.21 36.628ZM171.827 16.352C171.827 16.648 171.728 16.907 171.531 17.129C171.334 17.351 171.087 17.5237 170.791 17.647C170.372 17.8197 169.644 18.0417 168.608 18.313C167.572 18.5843 166.314 18.8927 164.834 19.238C163.379 19.5833 161.812 19.941 160.135 20.311C158.458 20.6563 156.78 20.9893 155.103 21.31C154.462 23.678 153.808 26.12 153.142 28.636C152.476 31.1273 151.81 33.5817 151.144 35.999C150.897 36.8623 150.601 37.516 150.256 37.96C149.911 38.4287 149.319 38.663 148.48 38.663C147.567 38.663 146.951 38.367 146.63 37.775C146.334 37.2077 146.297 36.4307 146.519 35.444C147.16 32.7553 147.752 30.2517 148.295 27.933C148.862 25.6143 149.319 23.7397 149.664 22.309C148.184 22.5557 146.889 22.753 145.779 22.901C144.669 23.0243 143.88 23.0737 143.411 23.049C142.893 22.9997 142.461 22.79 142.116 22.42C141.771 22.05 141.61 21.5937 141.635 21.051C141.684 20.5577 141.906 20.1383 142.301 19.793C142.696 19.423 143.164 19.201 143.707 19.127C144.472 19.053 145.458 18.942 146.667 18.794C147.876 18.646 149.208 18.4733 150.663 18.276C150.984 17.018 151.354 15.723 151.773 14.391C152.192 13.0343 152.624 11.7393 153.068 10.506C153.537 9.248 153.981 8.15033 154.4 7.213C154.819 6.27567 155.202 5.59733 155.547 5.178C155.818 4.85733 156.151 4.61066 156.546 4.438C156.965 4.26533 157.372 4.179 157.767 4.179C158.285 4.179 158.704 4.364 159.025 4.734C159.346 5.104 159.506 5.53567 159.506 6.029C159.506 6.22633 159.494 6.436 159.469 6.658C159.444 6.85533 159.395 7.05267 159.321 7.25C158.852 8.48333 158.347 9.97567 157.804 11.727C157.286 13.4783 156.743 15.4023 156.176 17.499C158.026 17.2277 159.839 16.9563 161.615 16.685C163.416 16.389 165.044 16.1177 166.499 15.871C167.979 15.5997 169.163 15.3653 170.051 15.168C170.544 14.9953 170.964 15.0323 171.309 15.279C171.654 15.501 171.827 15.8587 171.827 16.352Z" fill="url(#paint0_linear_1_3)"/>
<path d="M10.542 84.888C8.66733 84.888 7.00233 84.407 5.547 83.445C4.09167 82.483 2.94467 81.151 2.106 79.449C1.292 77.7223 0.885 75.749 0.885 73.529C0.885 71.8763 1.218 70.273 1.884 68.719C2.55 67.1403 3.29 65.759 4.104 64.575C4.00533 64.205 3.956 63.7487 3.956 63.206C3.956 62.54 4.22733 61.7753 4.77 60.912C5.31267 60.0487 6.065 59.21 7.027 58.396C8.01367 57.582 9.16067 56.9037 10.468 56.361C11.8 55.8183 13.243 55.547 14.797 55.547C17.2143 55.547 19.2493 56.0403 20.902 57.027C22.5547 58.0137 23.8003 59.3087 24.639 60.912C25.5023 62.5153 25.934 64.2543 25.934 66.129C25.934 68.8423 25.49 71.346 24.602 73.64C23.714 75.934 22.53 77.9197 21.05 79.597C19.57 81.2743 17.9173 82.5817 16.092 83.519C14.2667 84.4317 12.4167 84.888 10.542 84.888ZM10.986 61.689C11.0107 61.763 11.023 61.837 11.023 61.911C11.023 62.1577 10.9737 62.429 10.875 62.725C10.7763 62.9963 10.579 63.2677 10.283 63.539C9.78967 64.0323 9.29633 64.723 8.803 65.611C8.30967 66.4743 7.85333 67.4363 7.434 68.497C7.03933 69.5577 6.71867 70.643 6.472 71.753C6.22533 72.863 6.102 73.9237 6.102 74.935C6.102 76.3163 6.42267 77.4633 7.064 78.376C7.73 79.2887 8.766 79.745 10.172 79.745C11.356 79.745 12.4783 79.4737 13.539 78.931C14.5997 78.3637 15.574 77.6113 16.462 76.674C17.35 75.712 18.1147 74.6513 18.756 73.492C19.3973 72.308 19.8907 71.1117 20.236 69.903C20.606 68.6697 20.791 67.498 20.791 66.388C20.791 65.352 20.569 64.39 20.125 63.502C19.7057 62.614 19.089 61.8987 18.275 61.356C17.461 60.7887 16.4497 60.505 15.241 60.505C14.353 60.505 13.5513 60.616 12.836 60.838C12.1453 61.06 11.5287 61.3437 10.986 61.689ZM45.4067 84.925C45.16 84.925 44.6914 84.9127 44.0007 84.888C43.31 84.8633 42.4837 84.8263 41.5217 84.777C40.5597 84.7277 39.5607 84.6783 38.5247 84.629C37.5134 84.5797 36.5514 84.5427 35.6387 84.518C34.726 84.4933 33.986 84.481 33.4187 84.481C32.5307 84.481 31.7907 84.2097 31.1987 83.667C30.6314 83.0997 30.3477 82.3103 30.3477 81.299C30.3477 80.707 30.6684 79.93 31.3097 78.968C31.9757 77.9813 32.839 76.896 33.8997 75.712C34.9604 74.5033 36.1074 73.2823 37.3407 72.049C38.5987 70.8157 39.8444 69.6563 41.0777 68.571C42.3357 67.461 43.4457 66.5113 44.4077 65.722C42.7797 65.944 41.2134 66.203 39.7087 66.499C38.204 66.795 36.8967 67.054 35.7867 67.276C34.7014 67.498 33.9614 67.609 33.5667 67.609C32.8514 67.609 32.284 67.4117 31.8647 67.017C31.4454 66.5977 31.2357 66.0427 31.2357 65.352C31.2357 65.056 31.544 64.7477 32.1607 64.427C32.7774 64.0817 33.616 63.761 34.6767 63.465C35.7374 63.169 36.9337 62.8977 38.2657 62.651C39.6224 62.4043 41.0284 62.2193 42.4837 62.096C43.9637 61.948 45.419 61.874 46.8497 61.874C47.5404 61.874 48.12 62.0467 48.5887 62.392C49.082 62.7127 49.452 63.132 49.6987 63.65C49.97 64.1433 50.1057 64.649 50.1057 65.167C50.1057 65.3643 49.8344 65.7713 49.2917 66.388C48.749 67.0047 48.0337 67.7693 47.1457 68.682C46.2577 69.57 45.271 70.5443 44.1857 71.605C43.1004 72.641 42.015 73.7017 40.9297 74.787C39.869 75.8477 38.8824 76.859 37.9697 77.821C37.057 78.783 36.317 79.6217 35.7497 80.337C36.7117 80.3123 37.797 80.2753 39.0057 80.226C40.2144 80.1767 41.386 80.1273 42.5207 80.078C43.6554 80.0287 44.642 79.9917 45.4807 79.967C46.3194 79.9423 46.8497 79.93 47.0717 79.93C47.861 79.93 48.4284 80.115 48.7737 80.485C49.119 80.855 49.2917 81.2867 49.2917 81.78C49.2917 82.52 48.934 83.2353 48.2187 83.926C47.528 84.592 46.5907 84.925 45.4067 84.925ZM69.0931 64.205C70.4497 60.9737 71.6461 57.6437 72.6821 54.215C72.8794 53.5243 73.1631 52.994 73.5331 52.624C73.9277 52.254 74.4704 52.069 75.1611 52.069C75.7284 52.069 76.1601 52.2417 76.4561 52.587C76.7521 52.9077 76.9001 53.3517 76.9001 53.919C76.9001 54.3877 76.7027 55.2263 76.3081 56.435C75.9134 57.619 75.4324 59.1237 74.8651 60.949C74.2977 62.7743 73.7304 64.8833 73.1631 67.276C72.5957 69.6687 72.1147 72.2957 71.7201 75.157C71.3254 78.0183 71.1281 81.077 71.1281 84.333C71.1281 85.221 70.9554 85.9487 70.6101 86.516C70.2894 87.108 69.7221 87.404 68.9081 87.404C68.0201 87.404 67.3664 87.0957 66.9471 86.479C66.5524 85.8623 66.3551 85.073 66.3551 84.111C66.3551 82.2117 66.4167 80.633 66.5401 79.375C66.6881 78.0923 66.8361 76.9947 66.9841 76.082C65.7754 78.154 64.4927 79.9423 63.1361 81.447C61.8041 82.927 60.5214 84.0617 59.2881 84.851C58.0547 85.665 56.9941 86.072 56.1061 86.072C54.6507 86.072 53.4667 85.665 52.5541 84.851C51.6414 84.037 51.1851 82.8037 51.1851 81.151C51.1851 79.8683 51.4934 78.5487 52.1101 77.192C52.7267 75.8107 53.5407 74.454 54.5521 73.122C55.5634 71.79 56.6734 70.5443 57.8821 69.385C59.1154 68.201 60.3487 67.165 61.5821 66.277C62.8154 65.3643 63.9624 64.649 65.0231 64.131C66.0837 63.613 66.9471 63.354 67.6131 63.354C68.3531 63.354 68.8464 63.6377 69.0931 64.205ZM68.2421 66.203C68.0941 66.3017 67.9337 66.4003 67.7611 66.499C67.6131 66.573 67.4651 66.6593 67.3171 66.758C66.3797 67.35 65.3807 68.0653 64.3201 68.904C63.2594 69.718 62.2111 70.6307 61.1751 71.642C60.1391 72.6287 59.1894 73.6647 58.3261 74.75C57.4874 75.8107 56.8091 76.8713 56.2911 77.932C55.7977 78.968 55.5511 79.967 55.5511 80.929C55.5511 81.1017 55.6251 81.225 55.7731 81.299C55.9211 81.373 56.0567 81.41 56.1801 81.41C57.0434 81.41 57.9684 81.0277 58.9551 80.263C59.9664 79.4983 60.9901 78.4377 62.0261 77.081C63.0867 75.6997 64.1351 74.084 65.1711 72.234C66.2317 70.384 67.2554 68.3737 68.2421 66.203ZM82.4463 85.258C80.917 85.258 79.6836 84.7277 78.7463 83.667C77.809 82.5817 77.3403 80.8427 77.3403 78.45C77.3403 76.9207 77.513 75.3913 77.8583 73.862C78.2283 72.308 78.734 70.8403 79.3753 69.459C80.0413 68.053 80.806 66.8073 81.6693 65.722C82.5573 64.6367 83.5316 63.7857 84.5923 63.169C85.653 62.5277 86.7506 62.207 87.8853 62.207C89.8093 62.207 91.314 62.725 92.3993 63.761C93.4846 64.797 94.0273 66.1167 94.0273 67.72C94.0273 68.9533 93.682 70.0757 92.9913 71.087C92.3253 72.0737 91.4126 72.9617 90.2533 73.751C89.094 74.5403 87.799 75.2557 86.3683 75.897C84.9376 76.5383 83.47 77.118 81.9653 77.636C81.842 78.524 81.7803 79.3133 81.7803 80.004C81.7803 80.4233 82.0146 80.633 82.4833 80.633C83.5933 80.633 84.7773 80.4603 86.0353 80.115C87.318 79.745 88.613 79.2763 89.9203 78.709C91.2276 78.117 92.4856 77.5127 93.6943 76.896C94.903 76.2547 96.0006 75.6503 96.9873 75.083C97.9986 74.491 98.825 74.0223 99.4663 73.677C100.132 73.307 100.564 73.122 100.761 73.122C101.304 73.122 101.699 73.2823 101.945 73.603C102.192 73.9237 102.315 74.269 102.315 74.639C102.315 74.8117 101.982 75.194 101.316 75.786C100.675 76.378 99.787 77.081 98.6523 77.895C97.5423 78.6843 96.2843 79.5107 94.8783 80.374C93.497 81.2127 92.054 82.0143 90.5493 82.779C89.0693 83.519 87.6263 84.111 86.2203 84.555C84.839 85.0237 83.581 85.258 82.4463 85.258ZM82.5943 74.343C83.6056 73.751 84.6046 73.1343 85.5913 72.493C86.6026 71.827 87.4413 71.087 88.1073 70.273C88.7733 69.4343 89.1063 68.46 89.1063 67.35C89.1063 67.0293 89.02 66.8197 88.8473 66.721C88.6746 66.5977 88.428 66.536 88.1073 66.536C87.244 66.536 86.4546 66.9183 85.7393 67.683C85.0486 68.4477 84.432 69.4343 83.8893 70.643C83.3713 71.827 82.9396 73.0603 82.5943 74.343ZM131.295 83.149C131.147 84.481 130.358 85.147 128.927 85.147C128.187 85.147 127.595 84.925 127.151 84.481C126.732 84.037 126.522 83.3957 126.522 82.557C126.522 81.1263 126.584 79.597 126.707 77.969C126.855 76.3163 127.028 74.6513 127.225 72.974C127.447 71.2967 127.657 69.6933 127.854 68.164C126.966 69.4467 126.029 70.7663 125.042 72.123C124.055 73.4797 123.069 74.7993 122.082 76.082C121.095 77.3647 120.146 78.524 119.233 79.56C118.345 80.5713 117.531 81.3853 116.791 82.002C116.051 82.594 115.434 82.89 114.941 82.89C113.757 82.89 112.733 82.4583 111.87 81.595C111.007 80.707 110.575 79.5847 110.575 78.228C110.575 77.7593 110.624 77.1303 110.723 76.341C110.822 75.527 110.945 74.6637 111.093 73.751C111.241 72.8383 111.364 71.975 111.463 71.161C111.562 70.347 111.611 69.7057 111.611 69.237C111.611 69.237 111.611 69.2123 111.611 69.163C111.636 69.0397 111.611 68.978 111.537 68.978C111.438 68.978 111.167 69.311 110.723 69.977C110.279 70.6183 109.736 71.457 109.095 72.493C108.454 73.529 107.775 74.6143 107.06 75.749C106.369 76.8837 105.716 77.9443 105.099 78.931C104.507 79.9177 104.014 80.6823 103.619 81.225C103.076 82.0637 102.571 82.594 102.102 82.816C101.633 83.038 101.091 83.149 100.474 83.149C99.6106 83.149 98.9323 82.8653 98.439 82.298C97.9703 81.706 97.736 80.8797 97.736 79.819C97.736 79.375 97.81 78.6843 97.958 77.747C98.1306 76.8097 98.3403 75.7737 98.587 74.639C98.8336 73.4797 99.0803 72.3573 99.327 71.272C99.5983 70.162 99.8326 69.2247 100.03 68.46C100.252 67.4487 100.56 66.7457 100.955 66.351C101.374 65.9317 101.905 65.722 102.546 65.722C104.051 65.722 104.803 66.462 104.803 67.942C104.803 68.2133 104.717 68.6573 104.544 69.274C104.371 69.8907 104.162 70.606 103.915 71.42C103.668 72.234 103.409 73.0727 103.138 73.936C102.867 74.7747 102.645 75.564 102.472 76.304C103.064 75.268 103.705 74.158 104.396 72.974C105.087 71.79 105.79 70.6307 106.505 69.496C107.245 68.3613 107.973 67.3253 108.688 66.388C109.428 65.4507 110.156 64.7107 110.871 64.168C111.586 63.6007 112.265 63.317 112.906 63.317C113.547 63.317 114.176 63.5513 114.793 64.02C115.41 64.464 115.915 65.0437 116.31 65.759C116.729 66.4497 116.939 67.1897 116.939 67.979C116.939 68.719 116.84 69.607 116.643 70.643C116.446 71.679 116.224 72.7643 115.977 73.899C115.73 75.0337 115.558 76.1437 115.459 77.229C116.298 76.2917 117.186 75.231 118.123 74.047C119.06 72.8383 120.022 71.5927 121.009 70.31C121.996 69.0273 122.958 67.7817 123.895 66.573C124.857 65.3643 125.745 64.2667 126.559 63.28C127.398 62.2933 128.138 61.5163 128.779 60.949C129.42 60.357 129.914 60.061 130.259 60.061C131.27 60.061 132.06 60.3323 132.627 60.875C133.219 61.393 133.515 62.3057 133.515 63.613C133.515 64.427 133.453 65.4877 133.33 66.795C133.231 68.1023 133.083 69.5207 132.886 71.05C132.713 72.5547 132.516 74.084 132.294 75.638C132.097 77.1673 131.912 78.5857 131.739 79.893C131.566 81.2003 131.418 82.2857 131.295 83.149ZM139.221 84.555C138.53 84.555 137.913 84.3207 137.371 83.852C136.853 83.3833 136.594 82.6187 136.594 81.558C136.594 80.9907 136.668 80.189 136.816 79.153C136.988 78.117 137.21 76.9947 137.482 75.786C137.753 74.5527 138.049 73.3317 138.37 72.123C138.715 70.9143 139.048 69.8413 139.369 68.904C139.689 67.942 139.973 67.2267 140.22 66.758C140.54 66.1907 140.836 65.8453 141.108 65.722C141.404 65.574 141.687 65.5 141.959 65.5C142.452 65.5 142.908 65.648 143.328 65.944C143.772 66.24 143.994 66.8937 143.994 67.905C143.994 68.2997 143.92 68.941 143.772 69.829C143.624 70.6923 143.439 71.7037 143.217 72.863C142.995 74.0223 142.748 75.2187 142.477 76.452C142.23 77.6853 141.983 78.857 141.737 79.967C141.515 81.0523 141.33 81.965 141.182 82.705C141.058 83.3217 140.799 83.778 140.405 84.074C140.035 84.3947 139.64 84.555 139.221 84.555ZM143.476 61.837C142.662 61.837 141.909 61.6027 141.219 61.134C140.528 60.6407 140.183 59.8883 140.183 58.877C140.183 58.0383 140.392 57.36 140.812 56.842C141.231 56.324 141.724 55.954 142.292 55.732C142.884 55.4853 143.402 55.362 143.846 55.362C144.29 55.362 144.783 55.4607 145.326 55.658C145.868 55.8307 146.337 56.1637 146.732 56.657C147.151 57.1257 147.361 57.804 147.361 58.692C147.361 59.284 147.151 59.8267 146.732 60.32C146.312 60.7887 145.794 61.1587 145.178 61.43C144.586 61.7013 144.018 61.837 143.476 61.837ZM149.109 85.628C148.492 85.628 147.962 85.406 147.518 84.962C147.098 84.518 146.889 83.8767 146.889 83.038C146.889 82.668 146.938 82.0637 147.037 81.225C147.16 80.3617 147.308 79.375 147.481 78.265C147.678 77.155 147.863 75.9957 148.036 74.787C148.233 73.5783 148.393 72.4313 148.517 71.346C148.665 70.2607 148.763 69.3357 148.813 68.571C148.862 67.6337 149.109 66.9677 149.553 66.573C149.997 66.1537 150.527 65.944 151.144 65.944C151.637 65.944 152.081 66.0673 152.476 66.314C152.895 66.536 153.154 67.017 153.253 67.757C153.376 68.4723 153.388 69.5083 153.29 70.865C154.375 68.8917 155.473 67.128 156.583 65.574C157.717 64.02 158.901 62.7867 160.135 61.874C162.182 60.32 164.032 59.543 165.685 59.543C166.622 59.543 167.239 59.7527 167.535 60.172C167.831 60.5913 167.979 61.023 167.979 61.467C167.979 61.763 167.905 62.0343 167.757 62.281C167.633 62.5277 167.362 62.7867 166.943 63.058C166.523 63.3293 165.882 63.687 165.019 64.131C163.859 64.723 162.712 65.5 161.578 66.462C160.468 67.424 159.358 68.6573 158.248 70.162C157.138 71.6667 156.015 73.5167 154.881 75.712C153.746 77.9073 152.574 80.522 151.366 83.556C151.144 84.3947 150.823 84.9497 150.404 85.221C150.009 85.4923 149.577 85.628 149.109 85.628Z" fill="url(#paint1_linear_1_3)"/>
<defs>
<linearGradient id="paint0_linear_1_3" x1="0.472179" y1="40.2091" x2="145.236" y2="39.7287" gradientUnits="userSpaceOnUse">
<stop stop-color="#5EEAD4"/>
<stop offset="0.615" stop-color="#BEF264"/>
</linearGradient>
<linearGradient id="paint1_linear_1_3" x1="0.472179" y1="40.2091" x2="145.236" y2="39.7287" gradientUnits="userSpaceOnUse">
<stop stop-color="#BEF264"/>
<stop offset="1" stop-color="#5EEAD4"/>
</linearGradient>
</defs>
</svg>
