<svg width="0" height="0" class="hidden" xmlns="http://www.w3.org/2000/svg">
    <symbol viewBox="0 0 512 512" id="contact">
        <path d="M512 240c0 114.9-114.6 208-256 208c-37.1 0-72.3-6.4-104.1-17.9c-11.9 8.7-31.3 20.6-54.3 30.6C73.6 471.1 44.7 480 16 480c-6.5 0-12.3-3.9-14.8-9.9c-2.5-6-1.1-12.8 3.4-17.4l0 0 0 0 0 0 0 0 .3-.3c.3-.3 .7-.7 1.3-1.4c1.1-1.2 2.8-3.1 4.9-5.7c4.1-5 9.6-12.4 15.2-21.6c10-16.6 19.5-38.4 21.4-62.9C17.7 326.8 0 285.1 0 240C0 125.1 114.6 32 256 32s256 93.1 256 208z"/>
    </symbol>
    <symbol viewBox="0 0 576 512" id="about">
        <path d="M0 64C0 28.7 28.7 0 64 0H224V128c0 17.7 14.3 32 32 32H384V299.6l-94.7 94.7c-8.2 8.2-14 18.5-16.8 29.7l-15 60.1c-2.3 9.4-1.8 19 1.4 27.8H64c-35.3 0-64-28.7-64-64V64zm384 64H256V0L384 128zM549.8 235.7l14.4 14.4c15.6 15.6 15.6 40.9 0 56.6l-29.4 29.4-71-71 29.4-29.4c15.6-15.6 40.9-15.6 56.6 0zM311.9 417L441.1 287.8l71 71L382.9 487.9c-4.1 4.1-9.2 7-14.9 8.4l-60.1 15c-5.5 1.4-11.2-.2-15.2-4.2s-5.6-9.7-4.2-15.2l15-60.1c1.4-5.6 4.3-10.8 8.4-14.9z"/>
    </symbol>
    <symbol viewBox="0 0 512 512" id="resume">
        <path d="M96 0C60.7 0 32 28.7 32 64V448c0 35.3 28.7 64 64 64H384c35.3 0 64-28.7 64-64V64c0-35.3-28.7-64-64-64H96zM208 288h64c44.2 0 80 35.8 80 80c0 8.8-7.2 16-16 16H144c-8.8 0-16-7.2-16-16c0-44.2 35.8-80 80-80zm-32-96a64 64 0 1 1 128 0 64 64 0 1 1 -128 0zM512 80c0-8.8-7.2-16-16-16s-16 7.2-16 16v64c0 8.8 7.2 16 16 16s16-7.2 16-16V80zM496 192c-8.8 0-16 7.2-16 16v64c0 8.8 7.2 16 16 16s16-7.2 16-16V208c0-8.8-7.2-16-16-16zm16 144c0-8.8-7.2-16-16-16s-16 7.2-16 16v64c0 8.8 7.2 16 16 16s16-7.2 16-16V336z"/>
    </symbol>
    <symbol viewBox="0 0 640 512" id="works">
        <path d="M392.8 1.2c-17-4.9-34.7 5-39.6 22l-128 448c-4.9 17 5 34.7 22 39.6s34.7-5 39.6-22l128-448c4.9-17-5-34.7-22-39.6zm80.6 120.1c-12.5 12.5-12.5 32.8 0 45.3L562.7 256l-89.4 89.4c-12.5 12.5-12.5 32.8 0 45.3s32.8 12.5 45.3 0l112-112c12.5-12.5 12.5-32.8 0-45.3l-112-112c-12.5-12.5-32.8-12.5-45.3 0zm-306.7 0c-12.5-12.5-32.8-12.5-45.3 0l-112 112c-12.5 12.5-12.5 32.8 0 45.3l112 112c12.5 12.5 32.8 12.5 45.3 0s12.5-32.8 0-45.3L77.3 256l89.4-89.4c12.5-12.5 12.5-32.8 0-45.3z"/>
    </symbol>
    <symbol id="moon" viewBox="0 0 384 512">
        <path d="M144.7 98.7c-21 34.1-33.1 74.3-33.1 117.3c0 98 62.8 181.4 150.4 211.7c-12.4 2.8-25.3 4.3-38.6 4.3C126.6 432 48 353.3 48 256c0-68.9 39.4-128.4 96.8-157.3zm62.1-66C91.1 41.2 0 137.9 0 256C0 379.7 100 480 223.5 480c47.8 0 92-15 128.4-40.6c1.9-1.3 3.7-2.7 5.5-4c4.8-3.6 9.4-7.4 13.9-11.4c2.7-2.4 5.3-4.8 7.9-7.3c5-4.9 6.3-12.5 3.1-18.7s-10.1-9.7-17-8.5c-3.7 .6-7.4 1.2-11.1 1.6c-5 .5-10.1 .9-15.3 1c-1.2 0-2.5 0-3.7 0c-.1 0-.2 0-.3 0c-96.8-.2-175.2-78.9-175.2-176c0-54.8 24.9-103.7 64.1-136c1-.9 2.1-1.7 3.2-2.6c4-3.2 8.2-6.2 12.5-9c3.1-2 6.3-4 9.6-5.8c6.1-3.5 9.2-10.5 7.7-17.3s-7.3-11.9-14.3-12.5c-3.6-.3-7.1-.5-10.7-.6c-2.7-.1-5.5-.1-8.2-.1c-3.3 0-6.5 .1-9.8 .2c-2.3 .1-4.6 .2-6.9 .4z"/>
    </symbol>
    <symbol id="sun" viewBox="0 0 512 512">
        <path d="M375.7 19.7c-1.5-8-6.9-14.7-14.4-17.8s-16.1-2.2-22.8 2.4L256 61.1 173.5 4.2c-6.7-4.6-15.3-5.5-22.8-2.4s-12.9 9.8-14.4 17.8l-18.1 98.5L19.7 136.3c-8 1.5-14.7 6.9-17.8 14.4s-2.2 16.1 2.4 22.8L61.1 256 4.2 338.5c-4.6 6.7-5.5 15.3-2.4 22.8s9.8 13 17.8 14.4l98.5 18.1 18.1 98.5c1.5 8 6.9 14.7 14.4 17.8s16.1 2.2 22.8-2.4L256 450.9l82.5 56.9c6.7 4.6 15.3 5.5 22.8 2.4s12.9-9.8 14.4-17.8l18.1-98.5 98.5-18.1c8-1.5 14.7-6.9 17.8-14.4s2.2-16.1-2.4-22.8L450.9 256l56.9-82.5c4.6-6.7 5.5-15.3 2.4-22.8s-9.8-12.9-17.8-14.4l-98.5-18.1L375.7 19.7zM269.6 110l65.6-45.2 14.4 78.3c1.8 9.8 9.5 17.5 19.3 19.3l78.3 14.4L402 242.4c-5.7 8.2-5.7 19 0 27.2l45.2 65.6-78.3 14.4c-9.8 1.8-17.5 9.5-19.3 19.3l-14.4 78.3L269.6 402c-8.2-5.7-19-5.7-27.2 0l-65.6 45.2-14.4-78.3c-1.8-9.8-9.5-17.5-19.3-19.3L64.8 335.2 110 269.6c5.7-8.2 5.7-19 0-27.2L64.8 176.8l78.3-14.4c9.8-1.8 17.5-9.5 19.3-19.3l14.4-78.3L242.4 110c8.2 5.7 19 5.7 27.2 0zM256 368a112 112 0 1 0 0-224 112 112 0 1 0 0 224zM192 256a64 64 0 1 1 128 0 64 64 0 1 1 -128 0z"/>
    </symbol>
    <symbol id="cube" viewBox="0 0 512 512">
        <path d="M448 341.37V170.61A32 32 0 00432.11 143l-152-88.46a47.94 47.94 0 00-48.24 0L79.89 143A32 32 0 0064 170.61v170.76A32 32 0 0079.89 369l152 88.46a48 48 0 0048.24 0l152-88.46A32 32 0 00448 341.37z"
              fill="none" stroke="currentColor" stroke-linecap="round" stroke-linejoin="round" stroke-width="32"/>
        <path fill="none" stroke="currentColor" stroke-linecap="round" stroke-linejoin="round" stroke-width="32"
              d="M69 153.99l187 110 187-110M256 463.99v-200"/>
    </symbol>
    <symbol id="css" viewBox="0 0 512 512">
        <path d="M64 32l35 403.22L255.77 480 413 435.15 448 32zm290.68 334.9L256.07 395l-98.46-28.24-6.75-77.76h48.26l3.43 39.56 53.59 15.16.13.28 53.47-14.85 5.64-64.15H203l-4-50h120.65l4.35-51H140l-4-49h240.58z"/>
    </symbol>
    <symbol id="code" viewBox="0 0 512 512">
        <path fill="none" stroke="currentColor" stroke-linecap="round" stroke-linejoin="round" stroke-width="32"
              d="M160 368L32 256l128-112M352 368l128-112-128-112"/>
    </symbol>
    <symbol id="briefcase" viewBox="0 0 512 512">
        <rect x="32" y="128" width="448" height="320" rx="48" ry="48" fill="none" stroke="currentColor"
              stroke-linejoin="round" stroke-width="32"/>
        <path d="M144 128V96a32 32 0 0132-32h160a32 32 0 0132 32v32M480 240H32M320 240v24a8 8 0 01-8 8H200a8 8 0 01-8-8v-24"
              fill="none" stroke="currentColor" stroke-linecap="round" stroke-linejoin="round" stroke-width="32"/>
    </symbol>
    <symbol id="hammer" viewBox="0 0 512 512">
        <path d="M277.42 247a24.68 24.68 0 00-4.08-5.47L255 223.44a21.63 21.63 0 00-6.56-4.57 20.93 20.93 0 00-23.28 4.27c-6.36 6.26-18 17.68-39 38.43C146 301.3 71.43 367.89 37.71 396.29a16 16 0 00-1.09 23.54l39 39.43a16.13 16.13 0 0023.67-.89c29.24-34.37 96.3-109 136-148.23 20.39-20.06 31.82-31.58 38.29-37.94a21.76 21.76 0 003.84-25.2zM478.43 201l-34.31-34a5.44 5.44 0 00-4-1.59 5.59 5.59 0 00-4 1.59h0a11.41 11.41 0 01-9.55 3.27c-4.48-.49-9.25-1.88-12.33-4.86-7-6.86 1.09-20.36-5.07-29a242.88 242.88 0 00-23.08-26.72c-7.06-7-34.81-33.47-81.55-52.53a123.79 123.79 0 00-47-9.24c-26.35 0-46.61 11.76-54 18.51-5.88 5.32-12 13.77-12 13.77a91.29 91.29 0 0110.81-3.2 79.53 79.53 0 0123.28-1.49C241.19 76.8 259.94 84.1 270 92c16.21 13 23.18 30.39 24.27 52.83.8 16.69-15.23 37.76-30.44 54.94a7.85 7.85 0 00.4 10.83l21.24 21.23a8 8 0 0011.14.1c13.93-13.51 31.09-28.47 40.82-34.46s17.58-7.68 21.35-8.09a35.71 35.71 0 0121.3 4.62 13.65 13.65 0 013.08 2.38c6.46 6.56 6.07 17.28-.5 23.74l-2 1.89a5.5 5.5 0 000 7.84l34.31 34a5.5 5.5 0 004 1.58 5.65 5.65 0 004-1.58L478.43 209a5.82 5.82 0 000-8z"
              fill="none" stroke="currentColor" stroke-linecap="round" stroke-linejoin="round" stroke-width="32"/>
    </symbol>
    <symbol id="earth" viewBox="0 0 512 512">
        <path d="M464 256c0-114.87-93.13-208-208-208S48 141.13 48 256s93.13 208 208 208 208-93.13 208-208z" fill="none"
              stroke="currentColor" stroke-miterlimit="10" stroke-width="32"/>
        <path fill="currentColor" d="M445.57 172.14c-16.06.1-14.48 29.73-34.49 15.75-7.43-5.18-12-12.71-21.33-15-8.15-2-16.5.08-24.55 1.47-9.15 1.58-20 2.29-26.94 9.22-6.71 6.67-10.26 15.62-17.4 22.33-13.81 13-19.64 27.19-10.7 45.57 8.6 17.67 26.59 27.26 46 26 19.07-1.27 38.88-12.33 38.33 15.38-.2 9.8 1.85 16.6 4.86 25.71 2.79 8.4 2.6 16.54 3.24 25.21 1.18 16.2 4.16 34.36 12.2 48.67l15-21.16c1.85-2.62 5.72-6.29 6.64-9.38 1.63-5.47-1.58-14.87-1.95-21s-.19-12.34-1.13-18.47c-1.32-8.59-6.4-16.64-7.1-25.13-1.29-15.81 1.6-28.43-10.58-41.65-11.76-12.75-29-15.81-45.47-13.22-8.3 1.3-41.71 6.64-28.3-12.33 2.65-3.73 7.28-6.79 10.26-10.34 2.59-3.09 4.84-8.77 7.88-11.18s17-5.18 21-3.95 8.17 7 11.64 9.56a49.89 49.89 0 0021.81 9.36c13.66 2 42.22-5.94 42-23.46-.04-8.4-7.84-20.1-10.92-27.96zM287.45 316.3c-5.33-22.44-35.82-29.94-52.26-42.11-9.45-7-17.86-17.81-30.27-18.69-5.72-.41-10.51.83-16.18-.64-5.2-1.34-9.28-4.14-14.82-3.41-10.35 1.36-16.88 12.42-28 10.92-10.55-1.42-21.42-13.76-23.82-23.81-3.08-12.92 7.14-17.11 18.09-18.26 4.57-.48 9.7-1 14.09.67 5.78 2.15 8.51 7.81 13.7 10.67 9.73 5.33 11.7-3.19 10.21-11.83-2.23-12.94-4.83-18.22 6.71-27.12 8-6.14 14.84-10.58 13.56-21.61-.76-6.48-4.31-9.41-1-15.86 2.51-4.91 9.4-9.34 13.89-12.27 11.59-7.56 49.65-7 34.1-28.16-4.57-6.21-13-17.31-21-18.83-10-1.89-14.44 9.27-21.41 14.19-7.2 5.09-21.22 10.87-28.43 3-9.7-10.59 6.43-14.07 10-21.46s-8.27-21.36-14.61-24.9l-29.81 33.43a41.52 41.52 0 008.34 31.86c5.93 7.63 15.37 10.08 15.8 20.5.42 10-1.14 15.12-7.68 22.15-2.83 3-4.83 7.26-7.71 10.07-3.53 3.43-2.22 2.38-7.73 3.32-10.36 1.75-19.18 4.45-29.19 7.21C95.34 199.94 93.8 172.69 86.2 162l-25 20.19c-.27 3.31 4.1 9.4 5.29 13 6.83 20.57 20.61 36.48 29.51 56.16 9.37 20.84 34.53 15.06 45.64 33.32 9.86 16.2-.67 36.71 6.71 53.67 5.36 12.31 18 15 26.72 24 8.91 9.09 8.72 21.53 10.08 33.36a305.22 305.22 0 007.45 41.28c1.21 4.69 2.32 10.89 5.53 14.76 2.2 2.66 9.75 4.95 6.7 5.83 4.26.7 11.85 4.68 15.4 1.76 4.68-3.84 3.43-15.66 4.24-21 2.43-15.9 10.39-31.45 21.13-43.35 10.61-11.74 25.15-19.69 34.11-33 8.73-12.98 11.36-30.49 7.74-45.68zm-33.39 26.32c-6 10.71-19.36 17.88-27.95 26.39-2.33 2.31-7.29 10.31-10.21 8.58-2.09-1.24-2.8-11.62-3.57-14a61.17 61.17 0 00-21.71-29.95c-3.13-2.37-10.89-5.45-12.68-8.7-2-3.53-.2-11.86-.13-15.7.11-5.6-2.44-14.91-1.06-20 1.6-5.87-1.48-2.33 3.77-3.49 2.77-.62 14.21 1.39 17.66 2.11 5.48 1.14 8.5 4.55 12.82 8 11.36 9.11 23.87 16.16 36.6 23.14 9.86 5.46 12.76 12.37 6.46 23.62zM184.46 67.09c4.74 4.63 9.2 10.11 16.27 10.57 6.69.45 13-3.17 18.84 1.38 6.48 5 11.15 11.33 19.75 12.89 8.32 1.51 17.13-3.35 19.19-11.86 2-8.11-2.31-16.93-2.57-25.07 0-1.13.61-6.15-.17-7-.58-.64-5.42.08-6.16.1q-8.13.24-16.22 1.12a207.1 207.1 0 00-57.18 14.65c2.43 1.68 5.48 2.35 8.25 3.22zM356.4 123.27c8.49 0 17.11-3.8 14.37-13.62-2.3-8.23-6.22-17.16-15.76-12.72-6.07 2.82-14.67 10-15.38 17.12-.81 8.08 11.11 9.22 16.77 9.22zM349.62 166.24c8.67 5.19 21.53 2.75 28.07-4.66 5.11-5.8 8.12-15.87 17.31-15.86a15.4 15.4 0 0110.82 4.41c3.8 3.93 3.05 7.62 3.86 12.54 1.81 11.05 13.66.63 16.75-3.65 2-2.79 4.71-6.93 3.8-10.56-.84-3.39-4.8-7-6.56-10.11-5.14-9-9.37-19.47-17.07-26.74-7.41-7-16.52-6.19-23.55 1.08-5.76 6-12.45 10.75-16.39 18.05-2.78 5.13-5.91 7.58-11.54 8.91-3.1.73-6.64 1-9.24 3.08-7.24 5.7-3.12 19.39 3.74 23.51z"/>
    </symbol>
    <symbol id="instagram" viewBox="0 0 512 512">
        <path d="M349.33 69.33a93.62 93.62 0 0193.34 93.34v186.66a93.62 93.62 0 01-93.34 93.34H162.67a93.62 93.62 0 01-93.34-93.34V162.67a93.62 93.62 0 0193.34-93.34h186.66m0-37.33H162.67C90.8 32 32 90.8 32 162.67v186.66C32 421.2 90.8 480 162.67 480h186.66C421.2 480 480 421.2 480 349.33V162.67C480 90.8 421.2 32 349.33 32z"/>
        <path d="M377.33 162.67a28 28 0 1128-28 27.94 27.94 0 01-28 28zM256 181.33A74.67 74.67 0 11181.33 256 74.75 74.75 0 01256 181.33m0-37.33a112 112 0 10112 112 112 112 0 00-112-112z"/>
    </symbol>
    <symbol id="linkedin" viewBox="0 0 512 512">
        <path d="M444.17 32H70.28C49.85 32 32 46.7 32 66.89v374.72C32 461.91 49.85 480 70.28 480h373.78c20.54 0 35.94-18.21 35.94-38.39V66.89C480.12 46.7 464.6 32 444.17 32zm-273.3 373.43h-64.18V205.88h64.18zM141 175.54h-.46c-20.54 0-33.84-15.29-33.84-34.43 0-19.49 13.65-34.42 34.65-34.42s33.85 14.82 34.31 34.42c-.01 19.14-13.31 34.43-34.66 34.43zm264.43 229.89h-64.18V296.32c0-26.14-9.34-44-32.56-44-17.74 0-28.24 12-32.91 23.69-1.75 4.2-2.22 9.92-2.22 15.76v113.66h-64.18V205.88h64.18v27.77c9.34-13.3 23.93-32.44 57.88-32.44 42.13 0 74 27.77 74 87.64z"/>
    </symbol>
    <symbol id="github" viewBox="0 0 512 512">
        <path d="M256 32C132.3 32 32 134.9 32 261.7c0 101.5 64.2 187.5 153.2 217.9a17.56 17.56 0 003.8.4c8.3 0 11.5-6.1 11.5-11.4 0-5.5-.2-19.9-.3-39.1a102.4 102.4 0 01-22.6 2.7c-43.1 0-52.9-33.5-52.9-33.5-10.2-26.5-24.9-33.6-24.9-33.6-19.5-13.7-.1-14.1 1.4-14.1h.1c22.5 2 34.3 23.8 34.3 23.8 11.2 19.6 26.2 25.1 39.6 25.1a63 63 0 0025.6-6c2-14.8 7.8-24.9 14.2-30.7-49.7-5.8-102-25.5-102-113.5 0-25.1 8.7-45.6 23-61.6-2.3-5.8-10-29.2 2.2-60.8a18.64 18.64 0 015-.5c8.1 0 26.4 3.1 56.6 24.1a208.21 208.21 0 01112.2 0c30.2-21 48.5-24.1 56.6-24.1a18.64 18.64 0 015 .5c12.2 31.6 4.5 55 2.2 60.8 14.3 16.1 23 36.6 23 61.6 0 88.2-52.4 107.6-102.3 113.3 8 7.1 15.2 21.1 15.2 42.5 0 30.7-.3 55.5-.3 63 0 5.4 3.1 11.5 11.4 11.5a19.35 19.35 0 004-.4C415.9 449.2 480 363.1 480 261.7 480 134.9 379.7 32 256 32z"/>
    </symbol>
    <symbol id="email" viewBox="0 0 512 512">
        <rect x="48" y="96" width="416" height="320" rx="40" ry="40" fill="none" stroke="currentColor"
              stroke-linecap="round" stroke-linejoin="round" stroke-width="32"/>
        <path fill="none" stroke="currentColor" stroke-linecap="round" stroke-linejoin="round" stroke-width="32"
              d="M112 160l144 112 144-112"/>
    </symbol>
    <symbol id="phone" viewBox="0 0 512 512">
        <path d="M451 374c-15.88-16-54.34-39.35-73-48.76-24.3-12.24-26.3-13.24-45.4.95-12.74 9.47-21.21 17.93-36.12 14.75s-47.31-21.11-75.68-49.39-47.34-61.62-50.53-76.48 5.41-23.23 14.79-36c13.22-18 12.22-21 .92-45.3-8.81-18.9-32.84-57-48.9-72.8C119.9 44 119.9 47 108.83 51.6A160.15 160.15 0 0083 65.37C67 76 58.12 84.83 51.91 98.1s-9 44.38 23.07 102.64 54.57 88.05 101.14 134.49S258.5 406.64 310.85 436c64.76 36.27 89.6 29.2 102.91 23s22.18-15 32.83-31a159.09 159.09 0 0013.8-25.8C465 391.17 468 391.17 451 374z"
              fill="none" stroke="currentColor" stroke-miterlimit="10" stroke-width="32"/>
    </symbol>
    <symbol id="location" viewBox="0 0 512 512">
        <path d="M256 48c-79.5 0-144 61.39-144 137 0 87 96 224.87 131.25 272.49a15.77 15.77 0 0025.5 0C304 409.89 400 272.07 400 185c0-75.61-64.5-137-144-137z"
              fill="none" stroke="currentColor" stroke-linecap="round" stroke-linejoin="round" stroke-width="32"/>
        <circle cx="256" cy="192" r="48" fill="none" stroke="currentColor" stroke-linecap="round" stroke-linejoin="round"
                stroke-width="32"/>
    </symbol>
    <symbol id="download" viewBox="0 0 512 512">
        <path d="M320 336h76c55 0 100-21.21 100-75.6s-53-73.47-96-75.6C391.11 99.74 329 48 256 48c-69 0-113.44 45.79-128 91.2-60 5.7-112 35.88-112 98.4S70 336 136 336h56M192 400.1l64 63.9 64-63.9M256 224v224.03"
              fill="none" stroke="currentColor" stroke-linecap="round" stroke-linejoin="round" stroke-width="32"/>
    </symbol>
</svg>