<svg xmlns="http://www.w3.org/2000/svg" version="1.1" xmlns:xlink="http://www.w3.org/1999/xlink" xmlns:svgjs="http://svgjs.com/svgjs" width="27" height="32"><svg width="27" height="32" viewBox="0 0 27 32" fill="none" xmlns="http://www.w3.org/2000/svg">
<path d="M6.508 31.332C5.49667 31.332 4.732 31.1717 4.214 30.851C3.72067 30.555 3.38767 30.2097 3.215 29.815C3.067 29.4203 2.993 29.112 2.993 28.89C2.993 28.1747 3.31367 27.5827 3.955 27.114C4.621 26.6207 5.361 26.374 6.175 26.374C6.96433 26.374 7.93867 26.263 9.098 26.041C10.282 25.7943 11.5277 25.449 12.835 25.005C14.167 24.561 15.4373 24.006 16.646 23.34C17.8793 22.674 18.9523 21.9093 19.865 21.046C20.7777 20.1827 21.4067 19.233 21.752 18.197C21.2093 18.0983 20.6667 18.0243 20.124 17.975C19.5813 17.901 19.0387 17.864 18.496 17.864C16.6707 17.864 14.7837 18.0613 12.835 18.456C10.8863 18.8507 8.95 19.233 7.026 19.603C6.55733 19.7017 6.138 19.6153 5.768 19.344C5.71867 19.862 5.66933 20.343 5.62 20.787C5.59533 21.2063 5.57067 21.6627 5.546 22.156C5.49667 23.3647 5.38567 24.302 5.213 24.968C5.065 25.6093 4.89233 26.0657 4.695 26.337C4.49767 26.6083 4.288 26.7687 4.066 26.818C3.844 26.8673 3.63433 26.892 3.437 26.892C3.363 26.892 3.31367 26.892 3.289 26.892C2.845 26.892 2.42567 26.781 2.031 26.559C1.63633 26.337 1.31567 25.8807 1.069 25.19C0.822334 24.4747 0.699 23.4017 0.699 21.971C0.699 17.4323 1.19233 13.5843 2.179 10.427C3.19033 7.245 4.63333 4.82767 6.508 3.175C8.40733 1.49767 10.6767 0.658998 13.316 0.658998C15.388 0.658998 17.0037 1.22633 18.163 2.361C19.3223 3.471 19.902 5.07433 19.902 7.171C19.902 8.23167 19.6923 9.29233 19.273 10.353C18.8537 11.4137 18.2617 12.462 17.497 13.498C17.9657 13.3993 18.422 13.3253 18.866 13.276C19.31 13.202 19.7293 13.165 20.124 13.165C22.4427 13.165 24.157 13.5843 25.267 14.423C26.377 15.237 26.932 16.3347 26.932 17.716C26.932 19.0973 26.5373 20.3923 25.748 21.601C24.9833 22.8097 23.9597 23.9197 22.677 24.931C21.419 25.9177 20.0253 26.818 18.496 27.632C16.9667 28.4213 15.4373 29.0997 13.908 29.667C12.3787 30.2097 10.9603 30.6167 9.653 30.888C8.34567 31.184 7.29733 31.332 6.508 31.332ZM6.212 15.533C6.36 15.459 6.52033 15.4097 6.693 15.385C8.913 15.015 10.615 14.5093 11.799 13.868C12.983 13.2267 13.797 12.425 14.241 11.463C14.685 10.501 14.907 9.354 14.907 8.022C14.907 7.67667 14.8577 7.30667 14.759 6.912C14.6603 6.51733 14.463 6.18433 14.167 5.913C13.8957 5.617 13.4763 5.469 12.909 5.469C11.0343 5.469 9.56667 6.32 8.506 8.022C7.47 9.69933 6.70533 12.203 6.212 15.533Z" fill="url(#paint0_linear_1_3)"></path>
<defs>
<linearGradient id="SvgjsLinearGradient1000" x1="-3.27663" y1="13.6045" x2="26.8827" y2="13.5628" gradientUnits="userSpaceOnUse">
<stop stop-color="#5EEAD4"></stop>
<stop offset="0.615" stop-color="#BEF264"></stop>
</linearGradient>
</defs>
</svg><style>@media (prefers-color-scheme: light) { :root { filter: none; } }
</style></svg>