<?xml version="1.0" standalone="no"?>
<!DOCTYPE svg PUBLIC "-//W3C//DTD SVG 20010904//EN"
 "http://www.w3.org/TR/2001/REC-SVG-20010904/DTD/svg10.dtd">
<svg version="1.0" xmlns="http://www.w3.org/2000/svg"
 width="1024.000000pt" height="1024.000000pt" viewBox="0 0 1024.000000 1024.000000"
 preserveAspectRatio="xMidYMid meet">
<metadata>
Created by potrace 1.14, written by Peter Selinger 2001-2017
</metadata>
<g transform="translate(0.000000,1024.000000) scale(0.100000,-0.100000)"
fill="#000000" stroke="none">
<path d="M4848 10025 c-2 -2 -50 -6 -106 -10 -57 -4 -113 -9 -125 -11 -12 -3
-40 -7 -62 -10 -57 -6 -95 -12 -175 -29 -14 -3 -41 -8 -60 -11 -19 -3 -44 -8
-55 -12 -11 -3 -22 -6 -25 -7 -44 -8 -158 -40 -167 -48 -7 -5 -13 -7 -13 -4 0
6 -173 -50 -225 -72 -167 -71 -335 -151 -353 -168 -7 -7 -18 -13 -24 -13 -12
0 -169 -96 -248 -152 -30 -21 -63 -44 -74 -51 -10 -6 -35 -25 -55 -40 -20 -16
-51 -41 -70 -55 -35 -27 -113 -93 -141 -118 -77 -70 -270 -265 -270 -274 0 -5
-4 -10 -9 -10 -5 0 -50 -51 -101 -112 -50 -62 -100 -123 -110 -135 -11 -12
-34 -44 -52 -70 -50 -73 -92 -128 -101 -131 -4 -2 -5 -7 -2 -12 3 -5 -1 -14
-8 -22 -13 -14 -97 -138 -97 -144 0 -2 -19 -34 -42 -71 -78 -128 -258 -475
-258 -499 0 -8 -4 -14 -10 -14 -5 0 -10 -6 -10 -13 0 -7 -9 -33 -21 -56 -40
-84 -191 -465 -203 -516 -2 -5 -6 -17 -9 -25 -8 -16 -64 -184 -72 -212 -3 -10
-7 -26 -9 -35 -2 -10 -11 -38 -20 -63 -14 -44 -112 -405 -120 -445 -3 -11 -10
-42 -16 -70 -6 -27 -14 -61 -16 -75 -3 -14 -7 -31 -10 -39 -7 -21 -17 -82 -18
-111 -1 -14 -4 -27 -7 -30 -3 -3 -16 -58 -28 -123 -32 -168 -32 -168 -34 -199
-1 -15 -6 -28 -10 -28 -5 0 -6 -4 -3 -8 2 -4 -2 -43 -10 -87 -7 -44 -16 -105
-20 -135 -3 -30 -7 -57 -9 -60 -2 -3 -6 -34 -10 -70 -4 -36 -9 -74 -11 -85 -2
-11 -7 -42 -9 -70 -3 -27 -8 -68 -11 -90 -3 -22 -7 -60 -10 -85 -2 -25 -6 -65
-8 -90 -10 -80 -18 -164 -21 -215 -2 -27 -6 -79 -9 -115 -32 -364 -49 -792
-49 -1280 0 -285 6 -535 13 -535 1 0 3 -25 5 -55 3 -56 11 -130 20 -185 5 -29
9 -54 20 -120 5 -26 40 -163 49 -190 15 -46 55 -144 69 -170 6 -11 17 -33 25
-50 35 -70 135 -189 187 -223 139 -87 278 -125 455 -125 92 0 184 8 225 19 39
11 95 38 95 46 0 4 5 8 11 8 24 0 109 107 147 184 36 72 87 212 97 262 2 11 4
19 5 19 1 0 3 8 5 17 2 9 13 59 25 110 12 51 24 107 25 123 2 17 8 57 14 90 5
33 13 85 16 115 3 30 8 71 10 90 3 19 7 66 10 103 2 37 7 72 10 77 4 6 1 10
-5 10 -6 0 -8 5 -4 11 7 13 9 32 18 229 4 69 9 161 12 205 2 44 7 121 9 170 2
50 4 90 5 90 1 0 3 11 4 25 2 14 6 57 10 95 20 193 28 266 29 291 1 21 4 20
72 -16 38 -20 88 -40 110 -44 73 -12 195 -8 275 9 78 18 78 18 190 39 130 25
149 28 210 42 14 3 34 7 45 9 82 12 102 16 115 20 8 2 26 6 40 9 73 14 155 30
265 52 44 9 89 18 100 19 11 2 32 7 48 10 15 3 37 7 50 9 12 2 43 9 70 15 26
6 64 14 85 17 20 3 45 7 54 10 17 5 42 10 88 19 31 6 128 25 155 31 11 2 31 6
45 9 22 4 119 24 145 30 6 1 33 6 60 10 56 10 64 12 68 14 1 2 14 4 30 6 15 2
52 9 82 15 30 6 67 13 82 15 16 2 28 4 28 5 0 2 33 8 80 15 22 3 51 7 65 10
14 3 40 7 57 10 18 2 48 7 65 10 18 3 51 8 73 10 22 3 51 7 65 10 14 2 54 7
90 10 35 4 73 9 85 11 11 3 49 7 85 9 36 3 81 7 100 9 311 38 889 49 1165 22
53 -6 151 -16 195 -22 19 -2 60 -6 90 -10 30 -3 66 -7 80 -9 14 -2 45 -7 70
-10 85 -10 232 -35 238 -40 1 -1 -7 -27 -18 -56 -22 -58 -28 -72 -56 -134 -10
-22 -18 -42 -19 -45 0 -3 -5 -12 -10 -20 -5 -8 -23 -40 -38 -70 -16 -30 -42
-74 -58 -98 -16 -24 -29 -45 -29 -48 0 -7 -117 -161 -170 -225 -54 -65 -246
-257 -320 -319 -29 -25 -60 -52 -69 -60 -9 -9 -38 -33 -66 -55 -27 -22 -57
-45 -65 -52 -66 -53 -366 -263 -375 -263 -2 0 -24 -13 -48 -30 -25 -16 -49
-30 -55 -30 -6 0 -12 -4 -14 -8 -4 -10 -164 -102 -178 -102 -5 0 -10 -3 -10
-7 0 -5 -25 -19 -55 -33 -30 -14 -55 -29 -55 -33 0 -5 -4 -6 -9 -2 -5 3 -12 1
-16 -5 -6 -10 -391 -201 -411 -204 -7 -1 -18 -6 -25 -12 -8 -6 -33 -16 -56
-24 -24 -7 -43 -17 -43 -22 0 -4 -6 -8 -14 -8 -7 0 -34 -9 -60 -20 -25 -12
-48 -21 -51 -20 -3 0 -18 -6 -33 -14 -25 -13 -295 -116 -317 -121 -5 -1 -17
-5 -25 -8 -8 -4 -51 -18 -95 -32 -44 -15 -89 -31 -100 -35 -16 -8 -68 -23
-120 -36 -5 -1 -37 -12 -70 -24 -33 -11 -60 -20 -60 -20 0 1 -7 -1 -15 -4 -36
-12 -127 -38 -150 -42 -14 -3 -32 -7 -40 -11 -8 -3 -19 -7 -25 -8 -5 -2 -30
-8 -55 -15 -25 -7 -47 -12 -50 -12 -3 0 -15 -4 -28 -9 -12 -5 -34 -11 -47 -14
-14 -3 -36 -7 -50 -10 -13 -3 -36 -10 -50 -15 -14 -5 -29 -9 -33 -8 -4 1 -14
-1 -22 -5 -18 -6 -94 -24 -159 -37 -25 -5 -57 -12 -71 -15 -64 -13 -128 -25
-157 -30 -18 -3 -48 -8 -65 -11 -18 -4 -44 -8 -58 -10 -39 -5 -82 -12 -120
-18 -19 -3 -60 -8 -90 -11 -30 -2 -65 -6 -78 -9 -36 -8 -169 -18 -278 -21 -56
-1 -106 -5 -112 -9 -6 -3 -13 -2 -17 4 -4 6 -10 8 -14 6 -4 -3 -43 -8 -86 -11
-43 -3 -98 -10 -124 -16 -25 -6 -55 -12 -66 -13 -11 -2 -28 -6 -37 -10 -27 -9
-48 -15 -53 -16 -3 0 -18 -6 -34 -14 -16 -9 -31 -12 -35 -9 -3 4 -6 0 -6 -7 0
-7 -2 -11 -5 -8 -11 11 -145 -65 -256 -144 -36 -25 -143 -129 -172 -167 -30
-38 -88 -148 -90 -170 -1 -12 -4 -21 -7 -21 -4 0 -7 -6 -8 -12 0 -7 -3 -24 -7
-38 -3 -14 -8 -42 -9 -63 -2 -21 -5 -40 -8 -43 -5 -4 -3 -40 7 -117 5 -40 22
-111 32 -137 3 -8 7 -20 8 -25 6 -26 51 -123 69 -149 47 -67 115 -137 178
-181 18 -14 38 -29 45 -35 28 -24 146 -82 214 -106 88 -30 108 -36 185 -49 40
-7 49 -8 164 -21 127 -14 459 -7 555 12 17 4 37 6 45 6 8 0 58 7 110 15 52 8
106 16 120 17 14 2 34 6 45 9 11 3 36 8 55 11 30 4 119 22 200 40 22 5 68 15
140 31 14 3 38 8 54 11 16 2 32 6 35 8 3 2 22 7 41 10 19 3 105 24 190 46 85
23 166 43 179 46 14 3 28 7 33 10 5 3 21 8 36 10 15 3 61 16 102 29 41 13 89
27 105 31 17 4 35 9 40 13 6 3 17 6 25 8 8 1 96 30 195 63 99 34 187 63 196
65 9 2 45 15 80 28 101 40 183 68 193 67 5 -1 12 3 16 9 3 6 15 13 26 15 30 6
457 186 473 199 8 7 15 11 15 9 1 -2 15 2 31 9 17 7 32 13 35 14 3 1 34 15 70
32 36 17 97 45 135 63 96 43 476 233 550 274 33 18 80 44 105 58 25 14 72 40
105 58 33 19 63 38 66 43 3 5 9 8 13 7 4 -1 29 13 56 29 28 17 53 31 56 30 4
0 10 3 13 8 3 4 47 33 96 63 50 30 95 58 100 63 6 4 40 28 77 51 37 24 78 50
90 59 13 9 86 60 163 114 77 53 149 105 159 115 11 10 23 18 27 18 4 0 14 7
22 15 8 8 46 38 83 66 38 29 77 60 87 71 10 10 21 18 25 18 4 0 23 15 43 33
20 17 67 59 105 92 129 112 383 373 461 473 16 19 35 42 44 51 46 47 264 358
323 461 30 54 128 251 149 300 19 45 61 165 57 165 0 0 10 32 23 70 13 39 24
73 24 78 1 4 4 22 7 40 6 30 9 44 21 99 3 13 8 46 11 73 3 28 8 70 11 95 15
126 7 399 -16 501 -5 24 -12 56 -15 70 -2 15 -16 60 -31 100 -96 268 -267 477
-535 656 -84 56 -252 138 -350 172 -36 13 -72 26 -80 29 -45 16 -260 70 -310
77 -24 4 -47 8 -50 10 -3 1 -25 6 -50 9 -25 3 -56 8 -70 11 -14 2 -52 7 -85
10 -33 4 -73 8 -90 10 -219 28 -681 24 -860 -8 -30 -6 -111 -16 -170 -23 -16
-1 -30 -3 -30 -4 0 -2 -32 -8 -80 -15 -22 -3 -47 -7 -55 -9 -8 -1 -33 -6 -55
-10 -22 -4 -49 -10 -60 -13 -18 -5 -17 -2 6 28 58 77 159 228 159 238 0 6 5
11 10 11 6 0 10 7 10 15 0 8 5 15 10 15 6 0 10 7 10 15 0 8 4 15 9 15 5 0 13
10 17 22 3 12 22 45 40 74 48 75 204 378 204 396 0 9 7 21 15 28 9 7 13 15 11
18 -3 3 1 17 8 31 8 14 22 44 31 66 9 22 20 49 25 60 8 19 48 139 54 160 1 6
11 37 21 70 22 71 17 53 49 190 14 61 27 127 28 148 2 20 5 37 8 37 3 0 5 12
6 28 0 15 4 61 9 102 10 89 11 420 2 539 -6 78 -34 264 -50 331 -2 8 -7 31
-11 50 -4 19 -11 46 -16 60 -4 14 -16 52 -25 85 -10 33 -22 71 -28 85 -6 14
-11 31 -13 38 -3 18 -119 247 -147 293 -95 152 -258 333 -397 437 -19 15 -37
29 -40 32 -36 40 -345 208 -432 235 -5 1 -9 3 -10 4 -2 2 -14 5 -28 7 -13 2
-28 10 -32 17 -4 6 -8 9 -8 6 0 -4 -27 2 -61 12 -33 10 -70 21 -82 23 -12 3
-31 7 -42 10 -44 11 -162 35 -200 40 -22 3 -53 8 -70 10 -88 14 -172 18 -382
21 -127 2 -233 2 -235 0z m245 -1549 c76 -18 137 -44 185 -81 27 -20 142 -137
142 -144 0 -4 8 -16 18 -27 10 -10 19 -22 21 -26 1 -4 13 -33 27 -63 13 -31
26 -64 28 -73 1 -9 5 -24 9 -32 5 -14 20 -89 34 -175 15 -86 7 -489 -11 -595
-3 -14 -7 -45 -11 -70 -4 -25 -8 -56 -10 -70 -11 -77 -41 -196 -75 -303 -17
-53 -31 -99 -30 -102 0 -3 -9 -22 -20 -42 -11 -21 -20 -41 -20 -45 0 -8 -55
-125 -73 -153 -63 -102 -143 -211 -198 -268 -36 -37 -63 -70 -61 -72 3 -3 -3
-7 -12 -11 -9 -4 -29 -18 -44 -33 -49 -47 -104 -91 -112 -91 -5 0 -10 -3 -12
-7 -1 -5 -25 -24 -53 -42 -27 -19 -53 -40 -57 -45 -4 -6 -8 -7 -8 -3 0 4 -15
-3 -33 -17 -19 -15 -39 -26 -45 -26 -7 0 -12 -3 -12 -7 0 -5 -10 -13 -23 -19
-12 -6 -67 -33 -122 -61 -120 -61 -162 -80 -280 -126 -141 -55 -434 -149 -503
-162 -9 -2 -17 -4 -17 -6 0 -1 -9 -3 -20 -5 -11 -1 -54 -12 -95 -23 -41 -11
-86 -22 -100 -25 -14 -2 -59 -12 -100 -21 -92 -20 -129 -28 -190 -39 -14 -3
-36 -7 -50 -10 -40 -9 -73 -15 -110 -20 -19 -3 -48 -9 -65 -12 -16 -4 -41 -8
-55 -9 -14 -2 -27 -4 -30 -5 -3 -1 -9 -3 -15 -4 -10 -2 -26 -8 -73 -27 -22 -9
-23 -8 -15 44 4 28 8 64 8 80 0 15 3 27 6 27 3 0 6 6 6 13 0 11 18 127 27 172
2 11 6 36 10 55 7 38 13 71 22 110 2 14 7 41 10 60 2 19 7 43 10 52 3 10 7 30
10 45 31 183 201 827 234 885 6 10 10 22 10 28 0 18 113 315 123 321 5 3 8 10
7 15 -2 17 61 157 73 162 4 2 7 10 7 17 0 8 11 34 25 58 13 25 21 47 18 51 -4
3 -2 6 4 6 5 0 18 19 29 43 10 23 21 44 24 47 7 6 80 130 80 136 0 2 6 12 14
21 8 10 43 56 77 103 103 140 207 246 349 355 69 54 82 62 148 97 23 12 42 26
42 30 0 4 4 8 10 8 5 0 35 12 67 26 87 39 94 42 143 59 45 16 64 21 98 29 9 2
35 9 57 14 42 11 84 18 163 28 26 3 48 7 50 8 6 6 307 -1 335 -8z"/>
</g>
</svg>
